<?xml version="1.0" encoding="UTF-8"?>
<svg version="1.1" xmlns="http://www.w3.org/2000/svg" width="48" height="48">
<path d="M0 0 C1.52947266 -0.0309375 1.52947266 -0.0309375 3.08984375 -0.0625 C4.06824219 -0.06765625 5.04664062 -0.0728125 6.0546875 -0.078125 C6.95429199 -0.0874707 7.85389648 -0.09681641 8.78076172 -0.10644531 C11.59122552 0.32089036 12.32175982 1.12720671 14.125 3.25 C16.22489652 4.42574711 16.22489652 4.42574711 18.125 5.25 C18.125 5.91 18.125 6.57 18.125 7.25 C18.929375 7.394375 19.73375 7.53875 20.5625 7.6875 C23.125 8.25 23.125 8.25 24.125 9.25 C24.36715865 13.64958247 24.35350329 18.05469474 24.36523438 22.46020508 C24.37494529 24.67502315 24.4059579 26.88891541 24.4375 29.10351562 C24.4440293 30.5052028 24.44928006 31.90689664 24.453125 33.30859375 C24.4624707 34.59048584 24.47181641 35.87237793 24.48144531 37.19311523 C24.36381836 38.20188721 24.24619141 39.21065918 24.125 40.25 C21.05769559 42.29486961 20.43307783 42.50125915 16.9765625 42.50878906 C16.14560059 42.51509338 15.31463867 42.52139771 14.45849609 42.52789307 C13.56469238 42.5238446 12.67088867 42.51979614 11.75 42.515625 C10.82912598 42.51753845 9.90825195 42.5194519 8.95947266 42.52142334 C7.01269253 42.52278421 5.06590331 42.51909463 3.11914062 42.51074219 C0.13651172 42.5000413 -2.84551486 42.51064082 -5.828125 42.5234375 C-7.71875133 42.52211589 -9.60937729 42.51955346 -11.5 42.515625 C-12.84070557 42.52169769 -12.84070557 42.52169769 -14.20849609 42.52789307 C-15.45493896 42.51843658 -15.45493896 42.51843658 -16.7265625 42.50878906 C-17.45697754 42.50719788 -18.18739258 42.50560669 -18.93994141 42.50396729 C-20.875 42.25 -20.875 42.25 -23.875 40.25 C-24.26318359 37.20898438 -24.26318359 37.20898438 -24.2734375 33.34375 C-24.27630768 32.66324585 -24.27917786 31.9827417 -24.28213501 31.28161621 C-24.28417695 29.84252084 -24.27863786 28.40339779 -24.26611328 26.96435547 C-24.25005937 24.7581594 -24.26595531 22.55379516 -24.28515625 20.34765625 C-24.28317384 18.95051678 -24.2793302 17.55337845 -24.2734375 16.15625 C-24.27005371 14.88072266 -24.26666992 13.60519531 -24.26318359 12.29101562 C-24.13508301 11.28748047 -24.00698242 10.28394531 -23.875 9.25 C-20.875 7.25 -20.875 7.25 -17.875 7.25 C-17.545 6.26 -17.215 5.27 -16.875 4.25 C-14.375 2.625 -14.375 2.625 -11.875 1.25 C-9.45363626 -1.17136374 -3.25157032 0.01631905 0 0 Z " fill="#FEC928" transform="translate(23.875,2.75)"/>
<path d="M0 0 C1.52947266 -0.0309375 1.52947266 -0.0309375 3.08984375 -0.0625 C4.06824219 -0.06765625 5.04664062 -0.0728125 6.0546875 -0.078125 C6.95429199 -0.0874707 7.85389648 -0.09681641 8.78076172 -0.10644531 C11.59122552 0.32089036 12.32175982 1.12720671 14.125 3.25 C16.22489652 4.42574711 16.22489652 4.42574711 18.125 5.25 C18.125 6.24 18.125 7.23 18.125 8.25 C6.245 8.25 -5.635 8.25 -17.875 8.25 C-16.875 4.25 -16.875 4.25 -14.375 2.5625 C-13.55 2.129375 -12.725 1.69625 -11.875 1.25 C-9.45363626 -1.17136374 -3.25157032 0.01631905 0 0 Z " fill="#FFA102" transform="translate(23.875,2.75)"/>
<path d="M0 0 C4.455 0.99 4.455 0.99 9 2 C9 3.32 9 4.64 9 6 C6.03 5.505 6.03 5.505 3 5 C3.03480469 5.90363281 3.06960937 6.80726562 3.10546875 7.73828125 C3.13253906 8.91777344 3.15960938 10.09726562 3.1875 11.3125 C3.22230469 12.48425781 3.25710937 13.65601563 3.29296875 14.86328125 C3 18 3 18 1.6796875 19.8984375 C-0.90229576 21.59173815 -2.99842759 21.31931621 -6 21 C-8 19 -8 19 -8.25 16 C-8 13 -8 13 -6 11 C-2.875 10.875 -2.875 10.875 0 11 C0 7.37 0 3.74 0 0 Z " fill="#E92261" transform="translate(25,17)"/>
<path d="M0 0 C0.886875 -0.00451172 1.77375 -0.00902344 2.6875 -0.01367188 C3.656875 -0.01882812 4.62625 -0.02398437 5.625 -0.02929688 C6.635625 -0.01382812 7.64625 0.00164062 8.6875 0.01757812 C9.698125 0.00210937 10.70875 -0.01335937 11.75 -0.02929688 C12.719375 -0.02414063 13.68875 -0.01898438 14.6875 -0.01367188 C15.574375 -0.00916016 16.46125 -0.00464844 17.375 0 C19.6875 0.51757812 19.6875 0.51757812 22.6875 4.51757812 C13.4475 4.51757812 4.2075 4.51757812 -5.3125 4.51757812 C-2.3125 0.51757812 -2.3125 0.51757812 0 0 Z " fill="#FF8E00" transform="translate(15.3125,2.482421875)"/>
<path d="M0 0 C4.455 0.99 4.455 0.99 9 2 C9 3.32 9 4.64 9 6 C6.03 5.505 6.03 5.505 3 5 C3 9.29 3 13.58 3 18 C2.67 18 2.34 18 2 18 C1.87625 17.030625 1.7525 16.06125 1.625 15.0625 C1.41875 14.051875 1.2125 13.04125 1 12 C0.34 11.67 -0.32 11.34 -1 11 C-0.67 7.37 -0.34 3.74 0 0 Z " fill="#ED3E57" transform="translate(25,17)"/>
</svg>
